# xmcd CD database file
#
# Track frame offsets:
#	150
#	16450
#	34447
#	53267
#	70982
#	90342
#	117702
#	135612
#	159475
#	182332
#	197417
#	219032
#	230809
#
# Disc length: 3641 seconds
#
# Revision: 0
# Processed by: cddbd v1.4PL0 Copyright (c) Steve Scherf et al.
# Submitted via: CDex 1.50beta9
#
DISCID=a80e370d
DTITLE=Larisa Renee - Drive
DYEAR=2002
DGENRE=Blues
TTITLE0=My Man
TTITLE1=Babyface
TTITLE2=Rain Rain
TTITLE3=Don't Cry
TTITLE4=In December
TTITLE5=Small and Breakable
TTITLE6=Talk Too Much
TTITLE7=Scaley Fish
TTITLE8=Drive
TTITLE9=Daddy-O
TTITLE10=Butterfly Eyes
TTITLE11=Sally and Bobby
TTITLE12=Broertje ("Brother")
EXTD=YEAR: 2002
EXTT0=
EXTT1=
EXTT2=
EXTT3=
EXTT4=
EXTT5=
EXTT6=
EXTT7=
EXTT8=
EXTT9=
EXTT10=
EXTT11=
EXTT12=
PLAYORDER=
